<mxfile host="app.diagrams.net" modified="2023-10-14T12:28:32.172Z" agent="Mozilla/5.0 (Macintosh; Intel Mac OS X 10_15_7) AppleWebKit/537.36 (KHTML, like Gecko) Chrome/117.0.0.0 Safari/537.36" etag="23m9Y6Ns1ouCbJKkVt6F" version="22.0.4" type="github">
  <diagram name="Page-1" id="lCVZjJBoYw8JxGv4EW4w">
    <mxGraphModel dx="2156" dy="1905" grid="1" gridSize="10" guides="1" tooltips="1" connect="1" arrows="1" fold="1" page="1" pageScale="1" pageWidth="850" pageHeight="1100" math="0" shadow="0">
      <root>
        <mxCell id="0" />
        <mxCell id="1" parent="0" />
        <mxCell id="_rgz3-1bS5R_F30kFlZK-8" value="API Gateway Account" style="points=[[0,0],[0.25,0],[0.5,0],[0.75,0],[1,0],[1,0.25],[1,0.5],[1,0.75],[1,1],[0.75,1],[0.5,1],[0.25,1],[0,1],[0,0.75],[0,0.5],[0,0.25]];outlineConnect=0;gradientColor=none;html=1;whiteSpace=wrap;fontSize=12;fontStyle=0;container=1;pointerEvents=0;collapsible=0;recursiveResize=0;shape=mxgraph.aws4.group;grIcon=mxgraph.aws4.group_vpc;strokeColor=#248814;fillColor=none;verticalAlign=top;align=left;spacingLeft=30;fontColor=#AAB7B8;dashed=0;" vertex="1" parent="1">
          <mxGeometry x="-460" y="-160" width="950" height="628" as="geometry" />
        </mxCell>
        <mxCell id="_rgz3-1bS5R_F30kFlZK-33" style="edgeStyle=orthogonalEdgeStyle;rounded=0;orthogonalLoop=1;jettySize=auto;html=1;entryX=0;entryY=0.5;entryDx=0;entryDy=0;entryPerimeter=0;" edge="1" parent="_rgz3-1bS5R_F30kFlZK-8" source="_rgz3-1bS5R_F30kFlZK-9" target="_rgz3-1bS5R_F30kFlZK-31">
          <mxGeometry relative="1" as="geometry" />
        </mxCell>
        <object label="" id="_rgz3-1bS5R_F30kFlZK-9">
          <mxCell style="sketch=0;outlineConnect=0;fontColor=#232F3E;gradientColor=none;fillColor=#E7157B;strokeColor=none;dashed=0;verticalLabelPosition=bottom;verticalAlign=top;align=center;html=1;fontSize=12;fontStyle=0;aspect=fixed;pointerEvents=1;shape=mxgraph.aws4.endpoint;" vertex="1" parent="_rgz3-1bS5R_F30kFlZK-8">
            <mxGeometry x="270" y="193" width="78" height="78" as="geometry" />
          </mxCell>
        </object>
        <mxCell id="_rgz3-1bS5R_F30kFlZK-10" value="" style="outlineConnect=0;dashed=0;verticalLabelPosition=bottom;verticalAlign=top;align=center;html=1;shape=mxgraph.aws3.classic_load_balancer;fillColor=#F58534;gradientColor=none;" vertex="1" parent="_rgz3-1bS5R_F30kFlZK-8">
          <mxGeometry x="568.25" y="302" width="69" height="72" as="geometry" />
        </mxCell>
        <mxCell id="_rgz3-1bS5R_F30kFlZK-11" style="edgeStyle=orthogonalEdgeStyle;rounded=0;orthogonalLoop=1;jettySize=auto;html=1;entryX=0;entryY=0.5;entryDx=0;entryDy=0;entryPerimeter=0;" edge="1" parent="_rgz3-1bS5R_F30kFlZK-8" source="_rgz3-1bS5R_F30kFlZK-9" target="_rgz3-1bS5R_F30kFlZK-10">
          <mxGeometry relative="1" as="geometry" />
        </mxCell>
        <mxCell id="_rgz3-1bS5R_F30kFlZK-12" value="VPCLink" style="edgeLabel;html=1;align=center;verticalAlign=middle;resizable=0;points=[];" vertex="1" connectable="0" parent="_rgz3-1bS5R_F30kFlZK-11">
          <mxGeometry x="-0.0132" y="3" relative="1" as="geometry">
            <mxPoint x="-78" y="-51" as="offset" />
          </mxGeometry>
        </mxCell>
        <mxCell id="_rgz3-1bS5R_F30kFlZK-13" value="Private APIGateway" style="text;html=1;strokeColor=none;fillColor=none;align=center;verticalAlign=middle;whiteSpace=wrap;rounded=0;" vertex="1" parent="_rgz3-1bS5R_F30kFlZK-8">
          <mxGeometry x="279" y="273" width="60" height="30" as="geometry" />
        </mxCell>
        <mxCell id="_rgz3-1bS5R_F30kFlZK-14" value="BIP TLS NLB" style="text;html=1;strokeColor=none;fillColor=none;align=center;verticalAlign=middle;whiteSpace=wrap;rounded=0;" vertex="1" parent="_rgz3-1bS5R_F30kFlZK-8">
          <mxGeometry x="568.25" y="372" width="85.5" height="30" as="geometry" />
        </mxCell>
        <mxCell id="_rgz3-1bS5R_F30kFlZK-30" value="" style="outlineConnect=0;dashed=0;verticalLabelPosition=bottom;verticalAlign=top;align=center;html=1;shape=mxgraph.aws3.cloudwatch;fillColor=#759C3E;gradientColor=none;" vertex="1" parent="_rgz3-1bS5R_F30kFlZK-8">
          <mxGeometry x="16.5" y="185.5" width="82.5" height="93" as="geometry" />
        </mxCell>
        <mxCell id="_rgz3-1bS5R_F30kFlZK-31" value="" style="outlineConnect=0;dashed=0;verticalLabelPosition=bottom;verticalAlign=top;align=center;html=1;shape=mxgraph.aws3.classic_load_balancer;fillColor=#F58534;gradientColor=none;" vertex="1" parent="_rgz3-1bS5R_F30kFlZK-8">
          <mxGeometry x="568.25" y="88" width="69" height="72" as="geometry" />
        </mxCell>
        <mxCell id="_rgz3-1bS5R_F30kFlZK-32" value="DMS NLB" style="text;html=1;strokeColor=none;fillColor=none;align=center;verticalAlign=middle;whiteSpace=wrap;rounded=0;" vertex="1" parent="_rgz3-1bS5R_F30kFlZK-8">
          <mxGeometry x="560" y="163" width="85.5" height="30" as="geometry" />
        </mxCell>
        <mxCell id="_rgz3-1bS5R_F30kFlZK-19" style="edgeStyle=orthogonalEdgeStyle;rounded=0;orthogonalLoop=1;jettySize=auto;html=1;exitX=1;exitY=0.5;exitDx=0;exitDy=0;exitPerimeter=0;" edge="1" parent="_rgz3-1bS5R_F30kFlZK-8" source="_rgz3-1bS5R_F30kFlZK-10" target="_rgz3-1bS5R_F30kFlZK-34">
          <mxGeometry relative="1" as="geometry" />
        </mxCell>
        <mxCell id="_rgz3-1bS5R_F30kFlZK-23" value="PrivateLink" style="edgeLabel;html=1;align=center;verticalAlign=middle;resizable=0;points=[];" vertex="1" connectable="0" parent="_rgz3-1bS5R_F30kFlZK-19">
          <mxGeometry x="-0.1203" y="-2" relative="1" as="geometry">
            <mxPoint x="2" y="-2" as="offset" />
          </mxGeometry>
        </mxCell>
        <mxCell id="_rgz3-1bS5R_F30kFlZK-36" style="edgeStyle=orthogonalEdgeStyle;rounded=0;orthogonalLoop=1;jettySize=auto;html=1;entryX=0.75;entryY=0.5;entryDx=0;entryDy=0;entryPerimeter=0;" edge="1" parent="_rgz3-1bS5R_F30kFlZK-8" source="_rgz3-1bS5R_F30kFlZK-9" target="_rgz3-1bS5R_F30kFlZK-30">
          <mxGeometry relative="1" as="geometry" />
        </mxCell>
        <mxCell id="_rgz3-1bS5R_F30kFlZK-37" value="CloudWatch" style="text;html=1;strokeColor=none;fillColor=none;align=center;verticalAlign=middle;whiteSpace=wrap;rounded=0;" vertex="1" parent="_rgz3-1bS5R_F30kFlZK-8">
          <mxGeometry x="16.5" y="283" width="60" height="30" as="geometry" />
        </mxCell>
        <mxCell id="_rgz3-1bS5R_F30kFlZK-38" value="" style="sketch=0;outlineConnect=0;fontColor=#232F3E;gradientColor=none;fillColor=#ED7100;strokeColor=none;dashed=0;verticalLabelPosition=bottom;verticalAlign=top;align=center;html=1;fontSize=12;fontStyle=0;aspect=fixed;pointerEvents=1;shape=mxgraph.aws4.lambda_function;" vertex="1" parent="_rgz3-1bS5R_F30kFlZK-8">
          <mxGeometry x="285" y="343" width="48" height="48" as="geometry" />
        </mxCell>
        <mxCell id="_rgz3-1bS5R_F30kFlZK-39" value="" style="edgeStyle=orthogonalEdgeStyle;rounded=0;orthogonalLoop=1;jettySize=auto;html=1;" edge="1" parent="_rgz3-1bS5R_F30kFlZK-8" source="_rgz3-1bS5R_F30kFlZK-13" target="_rgz3-1bS5R_F30kFlZK-38">
          <mxGeometry relative="1" as="geometry" />
        </mxCell>
        <mxCell id="_rgz3-1bS5R_F30kFlZK-40" value="Authorizer" style="text;html=1;strokeColor=none;fillColor=none;align=center;verticalAlign=middle;whiteSpace=wrap;rounded=0;" vertex="1" parent="_rgz3-1bS5R_F30kFlZK-8">
          <mxGeometry x="279" y="391" width="60" height="30" as="geometry" />
        </mxCell>
        <mxCell id="_rgz3-1bS5R_F30kFlZK-34" value="" style="sketch=0;outlineConnect=0;fontColor=#232F3E;gradientColor=none;fillColor=#8C4FFF;strokeColor=none;dashed=0;verticalLabelPosition=bottom;verticalAlign=top;align=center;html=1;fontSize=12;fontStyle=0;aspect=fixed;pointerEvents=1;shape=mxgraph.aws4.endpoints;" vertex="1" parent="_rgz3-1bS5R_F30kFlZK-8">
          <mxGeometry x="820" y="300" width="78" height="78" as="geometry" />
        </mxCell>
        <mxCell id="_rgz3-1bS5R_F30kFlZK-41" value="" style="sketch=0;outlineConnect=0;fontColor=#232F3E;gradientColor=none;fillColor=#8C4FFF;strokeColor=none;dashed=0;verticalLabelPosition=bottom;verticalAlign=top;align=center;html=1;fontSize=12;fontStyle=0;aspect=fixed;pointerEvents=1;shape=mxgraph.aws4.endpoints;" vertex="1" parent="_rgz3-1bS5R_F30kFlZK-8">
          <mxGeometry x="820" y="88" width="78" height="78" as="geometry" />
        </mxCell>
        <mxCell id="_rgz3-1bS5R_F30kFlZK-42" value="" style="edgeStyle=orthogonalEdgeStyle;rounded=0;orthogonalLoop=1;jettySize=auto;html=1;" edge="1" parent="_rgz3-1bS5R_F30kFlZK-8" source="_rgz3-1bS5R_F30kFlZK-31" target="_rgz3-1bS5R_F30kFlZK-41">
          <mxGeometry relative="1" as="geometry" />
        </mxCell>
        <mxCell id="_rgz3-1bS5R_F30kFlZK-54" value="PrivateLink" style="edgeLabel;html=1;align=center;verticalAlign=middle;resizable=0;points=[];" vertex="1" connectable="0" parent="_rgz3-1bS5R_F30kFlZK-42">
          <mxGeometry x="-0.1141" y="-2" relative="1" as="geometry">
            <mxPoint as="offset" />
          </mxGeometry>
        </mxCell>
        <mxCell id="_rgz3-1bS5R_F30kFlZK-15" value="BIP Account" style="points=[[0,0],[0.25,0],[0.5,0],[0.75,0],[1,0],[1,0.25],[1,0.5],[1,0.75],[1,1],[0.75,1],[0.5,1],[0.25,1],[0,1],[0,0.75],[0,0.5],[0,0.25]];outlineConnect=0;gradientColor=none;html=1;whiteSpace=wrap;fontSize=12;fontStyle=0;container=1;pointerEvents=0;collapsible=0;recursiveResize=0;shape=mxgraph.aws4.group;grIcon=mxgraph.aws4.group_vpc;strokeColor=#248814;fillColor=none;verticalAlign=top;align=left;spacingLeft=30;fontColor=#AAB7B8;dashed=0;" vertex="1" parent="1">
          <mxGeometry x="630" y="260" width="390" height="190" as="geometry" />
        </mxCell>
        <mxCell id="_rgz3-1bS5R_F30kFlZK-18" value="" style="outlineConnect=0;dashed=0;verticalLabelPosition=bottom;verticalAlign=top;align=center;html=1;shape=mxgraph.aws3.classic_load_balancer;fillColor=#F58534;gradientColor=none;" vertex="1" parent="_rgz3-1bS5R_F30kFlZK-15">
          <mxGeometry x="30" y="80" width="69" height="72" as="geometry" />
        </mxCell>
        <mxCell id="_rgz3-1bS5R_F30kFlZK-20" value="BIP NLB&lt;br&gt;" style="text;html=1;strokeColor=none;fillColor=none;align=center;verticalAlign=middle;whiteSpace=wrap;rounded=0;" vertex="1" parent="_rgz3-1bS5R_F30kFlZK-15">
          <mxGeometry x="4.5" y="156" width="140" height="30" as="geometry" />
        </mxCell>
        <mxCell id="_rgz3-1bS5R_F30kFlZK-21" value="" style="outlineConnect=0;dashed=0;verticalLabelPosition=bottom;verticalAlign=top;align=center;html=1;shape=mxgraph.aws3.ec2;fillColor=#F58534;gradientColor=none;" vertex="1" parent="_rgz3-1bS5R_F30kFlZK-15">
          <mxGeometry x="280" y="69.5" width="76.5" height="93" as="geometry" />
        </mxCell>
        <mxCell id="_rgz3-1bS5R_F30kFlZK-25" value="" style="outlineConnect=0;dashed=0;verticalLabelPosition=bottom;verticalAlign=top;align=center;html=1;shape=mxgraph.aws3.application_load_balancer;fillColor=#F58534;gradientColor=none;" vertex="1" parent="_rgz3-1bS5R_F30kFlZK-15">
          <mxGeometry x="160.5" y="80" width="69" height="72" as="geometry" />
        </mxCell>
        <mxCell id="_rgz3-1bS5R_F30kFlZK-26" style="edgeStyle=orthogonalEdgeStyle;rounded=0;orthogonalLoop=1;jettySize=auto;html=1;exitX=1;exitY=0.5;exitDx=0;exitDy=0;exitPerimeter=0;entryX=0;entryY=0.5;entryDx=0;entryDy=0;entryPerimeter=0;" edge="1" parent="_rgz3-1bS5R_F30kFlZK-15" source="_rgz3-1bS5R_F30kFlZK-18" target="_rgz3-1bS5R_F30kFlZK-25">
          <mxGeometry relative="1" as="geometry" />
        </mxCell>
        <mxCell id="_rgz3-1bS5R_F30kFlZK-29" value="TCP" style="edgeLabel;html=1;align=center;verticalAlign=middle;resizable=0;points=[];" vertex="1" connectable="0" parent="_rgz3-1bS5R_F30kFlZK-26">
          <mxGeometry x="-0.1209" y="-3" relative="1" as="geometry">
            <mxPoint y="-3" as="offset" />
          </mxGeometry>
        </mxCell>
        <mxCell id="_rgz3-1bS5R_F30kFlZK-27" style="edgeStyle=orthogonalEdgeStyle;rounded=0;orthogonalLoop=1;jettySize=auto;html=1;exitX=1;exitY=0.5;exitDx=0;exitDy=0;exitPerimeter=0;entryX=0;entryY=0.5;entryDx=0;entryDy=0;entryPerimeter=0;" edge="1" parent="_rgz3-1bS5R_F30kFlZK-15" source="_rgz3-1bS5R_F30kFlZK-25" target="_rgz3-1bS5R_F30kFlZK-21">
          <mxGeometry relative="1" as="geometry" />
        </mxCell>
        <mxCell id="_rgz3-1bS5R_F30kFlZK-28" value="BIP ALB&lt;br&gt;&amp;nbsp;Self Signed Cert" style="text;html=1;strokeColor=none;fillColor=none;align=center;verticalAlign=middle;whiteSpace=wrap;rounded=0;" vertex="1" parent="_rgz3-1bS5R_F30kFlZK-15">
          <mxGeometry x="119" y="156" width="140" height="30" as="geometry" />
        </mxCell>
        <mxCell id="_rgz3-1bS5R_F30kFlZK-35" style="edgeStyle=orthogonalEdgeStyle;rounded=0;orthogonalLoop=1;jettySize=auto;html=1;entryX=0;entryY=0.5;entryDx=0;entryDy=0;entryPerimeter=0;" edge="1" parent="1" source="_rgz3-1bS5R_F30kFlZK-34" target="_rgz3-1bS5R_F30kFlZK-18">
          <mxGeometry relative="1" as="geometry" />
        </mxCell>
        <mxCell id="_rgz3-1bS5R_F30kFlZK-44" value="BIP Account" style="points=[[0,0],[0.25,0],[0.5,0],[0.75,0],[1,0],[1,0.25],[1,0.5],[1,0.75],[1,1],[0.75,1],[0.5,1],[0.25,1],[0,1],[0,0.75],[0,0.5],[0,0.25]];outlineConnect=0;gradientColor=none;html=1;whiteSpace=wrap;fontSize=12;fontStyle=0;container=1;pointerEvents=0;collapsible=0;recursiveResize=0;shape=mxgraph.aws4.group;grIcon=mxgraph.aws4.group_vpc;strokeColor=#248814;fillColor=none;verticalAlign=top;align=left;spacingLeft=30;fontColor=#AAB7B8;dashed=0;" vertex="1" parent="1">
          <mxGeometry x="630" y="60" width="390" height="180" as="geometry" />
        </mxCell>
        <mxCell id="_rgz3-1bS5R_F30kFlZK-45" value="" style="outlineConnect=0;dashed=0;verticalLabelPosition=bottom;verticalAlign=top;align=center;html=1;shape=mxgraph.aws3.classic_load_balancer;fillColor=#F58534;gradientColor=none;" vertex="1" parent="_rgz3-1bS5R_F30kFlZK-44">
          <mxGeometry x="30" y="68" width="69" height="72" as="geometry" />
        </mxCell>
        <mxCell id="_rgz3-1bS5R_F30kFlZK-46" value="DMS NLB" style="text;html=1;strokeColor=none;fillColor=none;align=center;verticalAlign=middle;whiteSpace=wrap;rounded=0;" vertex="1" parent="_rgz3-1bS5R_F30kFlZK-44">
          <mxGeometry x="-5.5" y="140" width="140" height="30" as="geometry" />
        </mxCell>
        <mxCell id="_rgz3-1bS5R_F30kFlZK-47" value="" style="outlineConnect=0;dashed=0;verticalLabelPosition=bottom;verticalAlign=top;align=center;html=1;shape=mxgraph.aws3.ec2;fillColor=#F58534;gradientColor=none;" vertex="1" parent="_rgz3-1bS5R_F30kFlZK-44">
          <mxGeometry x="280" y="57.5" width="76.5" height="93" as="geometry" />
        </mxCell>
        <mxCell id="_rgz3-1bS5R_F30kFlZK-48" value="" style="outlineConnect=0;dashed=0;verticalLabelPosition=bottom;verticalAlign=top;align=center;html=1;shape=mxgraph.aws3.application_load_balancer;fillColor=#F58534;gradientColor=none;" vertex="1" parent="_rgz3-1bS5R_F30kFlZK-44">
          <mxGeometry x="160.5" y="68" width="69" height="72" as="geometry" />
        </mxCell>
        <mxCell id="_rgz3-1bS5R_F30kFlZK-49" style="edgeStyle=orthogonalEdgeStyle;rounded=0;orthogonalLoop=1;jettySize=auto;html=1;exitX=1;exitY=0.5;exitDx=0;exitDy=0;exitPerimeter=0;entryX=0;entryY=0.5;entryDx=0;entryDy=0;entryPerimeter=0;" edge="1" parent="_rgz3-1bS5R_F30kFlZK-44" source="_rgz3-1bS5R_F30kFlZK-45" target="_rgz3-1bS5R_F30kFlZK-48">
          <mxGeometry relative="1" as="geometry" />
        </mxCell>
        <mxCell id="_rgz3-1bS5R_F30kFlZK-50" value="TCP" style="edgeLabel;html=1;align=center;verticalAlign=middle;resizable=0;points=[];" vertex="1" connectable="0" parent="_rgz3-1bS5R_F30kFlZK-49">
          <mxGeometry x="-0.1209" y="-3" relative="1" as="geometry">
            <mxPoint y="-3" as="offset" />
          </mxGeometry>
        </mxCell>
        <mxCell id="_rgz3-1bS5R_F30kFlZK-51" style="edgeStyle=orthogonalEdgeStyle;rounded=0;orthogonalLoop=1;jettySize=auto;html=1;exitX=1;exitY=0.5;exitDx=0;exitDy=0;exitPerimeter=0;entryX=0;entryY=0.5;entryDx=0;entryDy=0;entryPerimeter=0;" edge="1" parent="_rgz3-1bS5R_F30kFlZK-44" source="_rgz3-1bS5R_F30kFlZK-48" target="_rgz3-1bS5R_F30kFlZK-47">
          <mxGeometry relative="1" as="geometry" />
        </mxCell>
        <mxCell id="_rgz3-1bS5R_F30kFlZK-52" value="DMS ALB&lt;br&gt;&amp;nbsp;DigiCert Cert" style="text;html=1;strokeColor=none;fillColor=none;align=center;verticalAlign=middle;whiteSpace=wrap;rounded=0;" vertex="1" parent="_rgz3-1bS5R_F30kFlZK-44">
          <mxGeometry x="125" y="143" width="140" height="30" as="geometry" />
        </mxCell>
        <mxCell id="_rgz3-1bS5R_F30kFlZK-53" style="edgeStyle=orthogonalEdgeStyle;rounded=0;orthogonalLoop=1;jettySize=auto;html=1;entryX=0;entryY=0.5;entryDx=0;entryDy=0;entryPerimeter=0;" edge="1" parent="1" source="_rgz3-1bS5R_F30kFlZK-41" target="_rgz3-1bS5R_F30kFlZK-45">
          <mxGeometry relative="1" as="geometry" />
        </mxCell>
      </root>
    </mxGraphModel>
  </diagram>
</mxfile>
